<?xml version="1.0"?>
<svg xmlns="http://www.w3.org/2000/svg" viewBox="-71 0 512 512.00152" width="512px" height="512px" class=""><g><path d="m370.78125 258.429688c-.914062-13.691407-7.109375-26.207032-17.4375-35.242188-9.839844-8.609375-22.300781-13.058594-35.316406-12.671875-8.058594-22.144531-21.605469-42.023437-39.832032-57.964844-5.621093-4.917969-11.558593-9.335937-17.75-13.253906l-34.609374-130.035156c-1.28125-4.808594-5.289063-8.394531-10.214844-9.125-4.925782-.734375-9.804688 1.527343-12.429688 5.757812l-75.632812 121.808594c-.476563.769531-.863282 1.578125-1.160156 2.414063-18.175782 8.238281-34.542969 20.332031-48.070313 35.800781-11.664063 13.339843-20.570313 28.429687-26.484375 44.582031-1.296875-.011719-2.597656.011719-3.894531.097656-28.265625 1.890625-49.722657 26.425782-47.832031 54.691406.914062 13.691407 7.109374 26.207032 17.4375 35.242188 9.445312 8.261719 21.316406 12.707031 33.75 12.707031.890624 0 1.789062-.027343 2.691406-.074219 16.300781 39.441407 49.808594 69.605469 90.578125 81.777344v21.359375c-11.410157 1.734375-22.476563 5.109375-33.050781 10.128907-3.777344 1.789062-5.386719 6.304687-3.597657 10.082031 1.792969 3.777343 6.308594 5.390625 10.085938 3.597656 14.027343-6.65625 29.039062-10.03125 44.613281-10.03125h44.640625c42.917969 0 81.921875 26.757813 97.671875 66.785156h-239.972656c5.21875-12.910156 15.6875-28.195312 27.101562-39.46875 2.976563-2.9375 3.007813-7.730469.066406-10.703125-2.933593-2.976562-7.726562-3.007812-10.703124-.066406-10.660157 10.527344-24.496094 28.339844-31.355469 46.753906-1.574219 4.238282-.980469 8.988282 1.601562 12.699219 2.574219 3.707031 6.808594 5.921875 11.324219 5.921875h243.890625c4.515625 0 8.75-2.210938 11.324219-5.921875 2.582031-3.710937 3.179687-8.460937 1.601562-12.699219-15.332031-41.175781-52.046875-70.488281-94.496094-77.046875v-21.371093c17.015626-5.039063 32.964844-13.253907 47.109376-24.378907 3.285156-2.585937 3.855468-7.34375 1.269531-10.632812-2.585938-3.285157-7.34375-3.851563-10.628907-1.269531-20.039062 15.765624-44.136718 25-69.679687 26.707031-69.582031 4.65625-130.007813-48.179688-134.664063-117.777344-1.066406-15.921875.832032-31.585937 5.46875-46.367187.136719-.34375.257813-.695313.34375-1.066407.9375-2.890625 1.976563-5.746093 3.121094-8.5625.707032.121094 1.414063.242188 2.125.355469l1.570313.257812c.386719.0625.679687.113282.910156.15625.199219.035157.398437.0625.597656.078126l.941407.097656c2.613281.277344 5.320312.566406 8.046874.769531 4.746094.355469 9.585938.53125 14.46875.53125 2.46875 0 4.949219-.046875 7.429688-.136719 3.4375-.125 6.949219-.34375 10.445312-.644531 1.074219-.09375 2.148438-.207031 3.226563-.316406.65625-.066407 1.3125-.136719 1.96875-.199219l.824219-.074219c.1875-.019531.375-.042969.5625-.074219.226562-.035156.519531-.082031.910156-.140624 7.242188-1.109376 13.609375-2.335938 19.472656-3.753907 5.746094-1.386719 11.429688-3.027343 16.890625-4.878906 2.710938-.917969 5.421875-1.90625 8.054688-2.933594.898437-.351562 1.792969-.71875 2.6875-1.085937l.097656-.039063c.167969-.070312.261719-.109375.421875-.1875.292969-.140625 1.191406-.535156 1.964844-.878906.652344-.292969 1.230468-.546875 1.40625-.628906 4.980468-2.304688 8.191406-3.875 12.152344-6.144531 3.949218 2.203124 7.964843 4.257812 12.03125 6.140624.179687.085938.761718.34375 1.417968.636719.773438.339844 1.664063.734375 1.882813.835938.164062.082031.402343.1875.570312.253906.902344.371094 1.804688.742187 2.710938 1.097656 2.632812 1.027344 5.34375 2.015625 8.058593 2.933594 5.457032 1.851563 11.140626 3.492187 16.890626 4.878906 5.863281 1.417969 12.230468 2.644531 19.476562 3.753907.382812.058593.675781.105468.902344.140624.1875.03125.375.054688.566406.074219l.820312.074219c.660157.0625 1.316407.132812 1.972657.199219 1.074219.109375 2.148437.222656 3.222656.316406 3.496094.300781 7.007813.519531 10.449219.644531 2.480468.089844 4.957031.136719 7.429687.136719 4.878907 0 9.722657-.179687 14.46875-.53125 2.726563-.203125 5.433594-.492187 8.078125-.773437l.90625-.09375c.199219-.019532.398438-.046876.597656-.082032.230469-.039062.527344-.089844.921876-.15625l1.5625-.253906c.816406-.132812 1.628906-.269531 2.445312-.410156 1.171875 2.894531 2.234375 5.835937 3.1875 8.820312.074219.3125.167969.613282.277344.902344 2.945312 9.449219 4.804687 19.3125 5.480468 29.441406 2.058594 30.75-7.140624 61.121094-25.90625 85.519532-2.546874 3.3125-1.925781 8.066406 1.386719 10.617187 3.316407 2.546875 8.066407 1.925781 10.617188-1.386719 7.6875-10 13.933593-20.894531 18.660156-32.375 1.183594.082032 2.371094.136719 3.5625.136719 1.152344 0 2.308594-.039063 3.464844-.113281 13.691406-.917969 26.210937-7.109375 35.246093-17.441406 9.03125-10.328126 13.503907-23.558594 12.585938-37.25zm-185.929688 142.382812c3.160157 0 6.347657-.105469 9.546876-.316406 5.324218-.359375 10.589843-1.007813 15.78125-1.941406v16.441406c-.972657-.023438-1.941407-.058594-2.914063-.058594h-44.640625c-.972656 0-1.941406.015625-2.910156.039062v-16.425781c8.175781 1.480469 16.578125 2.261719 25.136718 2.261719zm27.945313-381.6875 29.382813 110.410156c-20.703126-9.167968-43.449219-13.25-66.6875-11.695312-9.113282.609375-18.035157 2.074218-26.679688 4.335937zm-185.273437 270.007812c-7.285157-6.371093-11.652344-15.199218-12.300782-24.855468-1.292968-19.347656 12.925782-36.214844 31.988282-38.414063-3.320313 13.804688-4.566407 28.183594-3.59375 42.757813.679687 10.144531 2.425781 19.96875 5.105468 29.375-7.8125-.554688-15.199218-3.617188-21.199218-8.863282zm138.796874-104.984374c-.164062.078124-.644531.289062-1.183593.527343-.761719.339844-1.621094.722657-2.117188.949219-.808593.332031-1.613281.664062-2.425781.980469-2.417969.945312-4.910156 1.851562-7.402344 2.695312-5.035156 1.707031-10.277344 3.222657-15.589844 4.503907-5.441406 1.316406-11.394531 2.460937-18.199218 3.5-.320313.050781-.585938.089843-.8125.128906l-.644532.058594c-.695312.066406-1.386718.136718-2.082031.210937-.988281.101563-1.980469.203125-2.972656.289063-3.246094.28125-6.507813.484374-9.695313.601562-6.828124.25-13.632812.125-20.21875-.363281-2.488281-.1875-4.957031-.449219-7.605468-.730469-.300782-.03125-.550782-.058594-.769532-.082031-.027343-.003907-.0625-.011719-.09375-.015625 4.265626-7.59375 9.34375-14.808594 15.214844-21.519532 11.476563-13.121093 25.238282-23.523437 40.5-30.839843.363282.53125.757813 1.074219 1.234375 1.632812 4.269531 5.039063 8.675781 9.84375 13.097657 14.289063 4.242187 4.261718 8.628906 8.324218 13.035156 12.070312 1.585937 1.347656 3.296875 2.75 5.234375 4.289063.0625.046875.125.097656.191406.148437.1875.136719.628906.476563 1.042969.792969.441406.335937.859375.652344.996094.753906 1.09375.804688 2.199218 1.601563 3.308593 2.382813.511719.363281 1.027344.710937 1.542969 1.066406-1.101562.523438-2.273438 1.074219-3.585938 1.679688zm128.628907 13.273437c-.21875.019531-.476563.046875-.796875.082031-2.613282.277344-5.082032.539063-7.574219.726563-6.585937.488281-13.390625.613281-20.21875.363281-3.1875-.117188-6.449219-.320312-9.695313-.601562-.992187-.085938-1.984374-.1875-2.972656-.289063-.695312-.074219-1.386718-.144531-2.082031-.210937l-.644531-.058594c-.226563-.035156-.488282-.078125-.808594-.128906-6.808594-1.039063-12.761719-2.183594-18.203125-3.5-5.308594-1.28125-10.554687-2.800782-15.589844-4.503907-2.496093-.84375-4.988281-1.753906-7.40625-2.699219-.789062-.308593-1.574219-.628906-2.421875-.976562-.492187-.226562-1.351562-.609375-2.109375-.945312-.542969-.242188-1.023437-.453126-1.191406-.53125-9.074219-4.199219-17.871094-9.289063-26.152344-15.121094-1.023437-.722656-2.039062-1.453125-3.035156-2.1875-.125-.09375-.453125-.34375-.804687-.613282-.402344-.308593-.835938-.636718-1.085938-.824218-1.769531-1.40625-3.324219-2.683594-4.757812-3.898438-4.089844-3.476562-8.164063-7.253906-12.109376-11.214844-3.480468-3.5-6.953124-7.257812-10.355468-11.175781 10.09375-3.347656 20.679687-5.4375 31.570312-6.167969 33.714844-2.261718 66.289063 8.753907 91.726563 31 11.054687 9.667969 20.183593 20.957032 27.15625 33.398438-.160157.027344-.304688.054688-.4375.078125zm26.988281 100.59375c-.261719.015625-.523438.011719-.785156.027344 4.4375-15.5625 6.21875-31.898438 5.121094-48.328125-.546876-8.164063-1.777344-16.171875-3.648438-23.964844 7.648438.640625 14.867188 3.683594 20.75 8.832031 7.289062 6.371094 11.65625 15.199219 12.300781 24.859375 1.332031 19.933594-13.800781 37.238282-33.738281 38.574219zm0 0" data-original="#000000" class="active-path" data-old_color="#000000" fill="#FFFFFF"/><path d="m160.554688 251.847656c0-16.972656-13.808594-30.78125-30.785157-30.78125-16.972656 0-30.785156 13.808594-30.785156 30.78125 0 4.183594 3.390625 7.570313 7.570313 7.570313 4.179687 0 7.570312-3.386719 7.570312-7.570313 0-8.625 7.019531-15.644531 15.644531-15.644531 8.628907 0 15.644531 7.019531 15.644531 15.644531 0 4.183594 3.390626 7.570313 7.570313 7.570313s7.570313-3.386719 7.570313-7.570313zm0 0" data-original="#000000" class="active-path" data-old_color="#000000" fill="#FFFFFF"/><path d="m222.457031 251.847656c0-8.625 7.019531-15.644531 15.644531-15.644531 8.628907 0 15.644532 7.019531 15.644532 15.644531 0 4.183594 3.390625 7.570313 7.570312 7.570313 4.183594 0 7.570313-3.386719 7.570313-7.570313 0-16.972656-13.8125-30.78125-30.785157-30.78125-16.972656 0-30.78125 13.808594-30.78125 30.78125 0 4.183594 3.386719 7.570313 7.566407 7.570313 4.183593 0 7.570312-3.386719 7.570312-7.570313zm0 0" data-original="#000000" class="active-path" data-old_color="#000000" fill="#FFFFFF"/><path d="m184.945312 324.6875c16.972657 0 30.785157-13.808594 30.785157-30.785156 0-4.179688-3.390625-7.566406-7.570313-7.566406-4.179687 0-7.570312 3.386718-7.570312 7.566406 0 8.628906-7.015625 15.644531-15.644532 15.644531-8.625 0-15.644531-7.015625-15.644531-15.644531 0-4.179688-3.386719-7.566406-7.570312-7.566406-4.179688 0-7.570313 3.386718-7.570313 7.566406 0 16.976562 13.8125 30.785156 30.785156 30.785156zm0 0" data-original="#000000" class="active-path" data-old_color="#000000" fill="#FFFFFF"/></g> </svg>
