<?xml version="1.0"?>
<svg xmlns="http://www.w3.org/2000/svg" viewBox="0 0 64 64" width="512px" height="512px"><g><g id="Outline_copy" data-name="Outline copy"><g><path d="M2.59,3.91c1.92.88,3.88,1.64,5.86,2.34l.72,6.26a1,1,0,0,0,.66.83,1,1,0,0,0,1-.22l4.88-4.61.09-.11a68.4,68.4,0,0,0,7.09,1.28l-1.8,2.62-.24-.7a1,1,0,1,0-1.89.63l.87,2.61a1,1,0,0,0,.81.67h.14a1,1,0,0,0,.82-.44L25.16,10c1,.1,2,.19,3,.24L31.11,16a1,1,0,0,0,1.78,0l2.91-5.81C36.88,10.13,38,10,39,9.93l3.55,5.15a1,1,0,0,0,.82.44h.14a1,1,0,0,0,.81-.67l2-6c.67-.14,1.32-.3,2-.45l.13.15,4.87,4.61a1,1,0,0,0,.68.28,1.07,1.07,0,0,0,.35-.06,1,1,0,0,0,.65-.83l.73-6.34c1.9-.68,3.79-1.42,5.64-2.26a1,1,0,0,0-.82-1.82,69,69,0,0,1-57.18,0,1,1,0,0,0-.82,1.82Zm8.34,6.38-.35-3.06,2.6.94Zm32.17,2L41.35,9.76l2.73-.39Zm10.18-2L51,8.17l2.59-.94ZM32,13.32l-1.38-2.77h2.76Z" data-original="#000000" class="active-path" data-old_color="#000000" fill="#FFFFFF"/><path d="M61,49H59V47a3,3,0,0,0-2.14-2.86A5,5,0,0,0,58,41a1,1,0,0,0-2,0,3,3,0,1,1-3-3h4a1,1,0,0,0,.83-.44,1,1,0,0,0,.1-.93l-3.26-8.14a3,3,0,1,0-3.34,0l-3.26,8.14a1,1,0,0,0,.1.93A1,1,0,0,0,49,38h0a4.9,4.9,0,0,0,.25,6.31A1,1,0,0,0,50,46h6a1,1,0,0,1,1,1v2H53a1,1,0,0,0-1,1v4H49.18L50,49.16A1,1,0,0,0,49,48H45V47a3,3,0,0,0-2.14-2.86A4.89,4.89,0,0,0,43,38h0a1,1,0,0,0,.83-.44,1,1,0,0,0,.1-.93l-3-7.61a.94.94,0,0,0,.36.08,1,1,0,0,0,.59-.19,1,1,0,0,0,.4-1l-.34-2,1.44-1.41a1,1,0,0,0,.26-1,1,1,0,0,0-.81-.68l-2-.29-.89-1.82a1,1,0,0,0-1.8,0l-.89,1.82-2,.29a1,1,0,0,0-.81.68,1,1,0,0,0,.26,1l1.44,1.41-.34,2a1,1,0,0,0,.4,1,1,1,0,0,0,1,.11l-3,7.61a1,1,0,0,0,.1.93A1,1,0,0,0,35,38h0a4.89,4.89,0,0,0,.11,6.14,3,3,0,0,0-2,1.86H33V44a1,1,0,0,0-2,0v2h-.18a3,3,0,0,0-2-1.86A4.89,4.89,0,0,0,29,38h0a1,1,0,0,0,.83-.44,1,1,0,0,0,.1-.93l-3.26-8.14a3,3,0,1,0-3.34,0l-3.26,8.14a1,1,0,0,0,.1.93A1,1,0,0,0,21,38h0a4.9,4.9,0,0,0,.25,6.31A1,1,0,0,0,22,46h6a1,1,0,0,0-1,1v3H26a1,1,0,0,0-1,1v3H22.82A3,3,0,0,0,23,53V51a1,1,0,0,0-1-1H20.82a3,3,0,0,0-3.94-3.78,3,3,0,0,0-2-2.08A4.89,4.89,0,0,0,15,38h0a1,1,0,0,0,.83-.44,1,1,0,0,0,.1-.93l-3.26-8.14a3,3,0,1,0-3.34,0L6.07,36.63a1,1,0,0,0,.1.93A1,1,0,0,0,7,38H7a4.92,4.92,0,0,0-1,3,1,1,0,0,0,2,0,3,3,0,1,1,3,3H8a3,3,0,0,0-3,3v1H4a1,1,0,0,0-.76.35,1,1,0,0,0-.23.81L3.82,54H3a1,1,0,0,0-1,1v6a1,1,0,0,0,2,0V56H60v5a1,1,0,0,0,2,0V50A1,1,0,0,0,61,49ZM50.48,36l.23-.58,4.21-.93.6,1.51Zm1.13-2.83L53,29.69l1.17,2.92ZM53,25a1,1,0,1,1-1,1A1,1,0,0,1,53,25ZM22.48,36l.23-.58,4.21-.93.6,1.51Zm1.13-2.83L25,29.69l1.17,2.92ZM25,25a1,1,0,1,1-1,1A1,1,0,0,1,25,25Zm3,16a3,3,0,1,1-3-3A3,3,0,0,1,28,41ZM8.48,36l.23-.58,4.21-.93.6,1.51Zm1.13-2.83L11,29.69l1.17,2.92ZM11,25a1,1,0,1,1-1,1A1,1,0,0,1,11,25Zm29.17,7.61-2.56.56L39,29.69ZM36.48,36l.23-.58,4.21-.93.6,1.51ZM38,24.44a1,1,0,0,0,.75-.55l.23-.46.23.46a1,1,0,0,0,.75.55l.52.07-.37.37a1,1,0,0,0-.29.88l.09.51L39.46,26a1,1,0,0,0-.92,0l-.47.24.09-.51a1,1,0,0,0-.28-.88l-.38-.37ZM42,41a3,3,0,1,1-3-3A3,3,0,0,1,42,41Zm0,5a1,1,0,0,1,1,1v1a1,1,0,0,0-1,1.16L42.82,54H39V51a1,1,0,0,0-1-1H37V47a1,1,0,0,0-1-1ZM29,48h6v2H29ZM18,48a1,1,0,1,1-1,1A1,1,0,0,1,18,48ZM7,47a1,1,0,0,1,1-1h6a1,1,0,0,1,1,1v3H14a1,1,0,0,0,0,2h7v1a1,1,0,0,1-1,1H10.18L11,49.16a1,1,0,0,0-.23-.81A1,1,0,0,0,10,48H7ZM5.85,54l-.67-4H8.82l-.67,4ZM27,54V52H37v2Zm17.85,0-.67-4h3.64l-.67,4ZM54,51h2v3H54Zm4,3V51h2v3Z" data-original="#000000" class="active-path" data-old_color="#000000" fill="#FFFFFF"/></g></g></g> </svg>
