<?xml version="1.0"?>
<svg xmlns="http://www.w3.org/2000/svg" id="Capa_1" enable-background="new 0 0 512.035 512.035" height="512px" viewBox="0 0 512.035 512.035" width="512px"><g><g><path d="m408.885 0h-305.735c-43.467 0-78.83 35.363-78.83 78.83v23.575c0 36.065 24.354 66.529 57.473 75.866l-26.965 319.904c-.299 3.555.914 7.101 3.328 9.727s5.846 4.133 9.413 4.133h11.461c5.981 0 11.238-4.244 12.499-10.091l17.706-82.094 146.781-48.014 146.782 48.014 17.705 82.092c1.26 5.848 6.517 10.092 12.499 10.092h11.461c3.567 0 6.998-1.506 9.413-4.133 2.414-2.626 3.628-6.172 3.328-9.728l-26.964-319.904c33.12-9.337 57.474-39.801 57.474-75.866v-23.573c.002-43.467-35.362-78.83-78.829-78.83zm-331.641 497.035h-7.266l26.643-316.092c2.155.178 4.329.292 6.529.292h42.205zm35.654-94.164 15.684-72.719 103.312 33.794zm167.243-38.925 103.312-33.794 15.684 72.719zm192.575-261.541c0 35.196-28.635 63.83-63.831 63.83h-75.875c-4.143 0-7.5 3.358-7.5 7.5s3.357 7.5 7.5 7.5h18.325l6.237 28.919c.758 3.517 3.867 5.92 7.323 5.92.524 0 1.057-.055 1.589-.17 4.049-.874 6.624-4.864 5.75-8.913l-5.555-25.757h42.206c2.2 0 4.374-.114 6.529-.292l26.643 316.092h-7.265l-55.785-258.643c-.872-4.05-4.872-6.62-8.912-5.75-4.049.874-6.624 4.864-5.75 8.913l15.929 73.855-124.256 40.646-124.256-40.645 28.938-134.175h140.347c4.143 0 7.5-3.358 7.5-7.5s-3.357-7.5-7.5-7.5h-197.897c-35.196 0-63.83-28.634-63.83-63.83v-23.575c0-35.196 28.634-63.83 63.83-63.83h305.735c35.196 0 63.831 28.634 63.831 63.83z" data-original="#000000" class="active-path" data-old_color="#000000" fill="#FFFFFF"/><path d="m408.885 30h-238.259c-4.142 0-7.5 3.358-7.5 7.5s3.358 7.5 7.5 7.5h238.259c18.654 0 33.83 15.176 33.83 33.83v23.575c0 18.654-15.176 33.83-33.83 33.83h-305.735c-18.654 0-33.831-15.176-33.831-33.83v-23.575c0-18.654 15.176-33.83 33.831-33.83h35.514c4.142 0 7.5-3.358 7.5-7.5s-3.358-7.5-7.5-7.5h-35.514c-26.925 0-48.831 21.905-48.831 48.83v23.575c0 26.925 21.905 48.83 48.831 48.83h305.736c26.925 0 48.83-21.905 48.83-48.83v-23.575c0-26.925-21.906-48.83-48.831-48.83z" data-original="#000000" class="active-path" data-old_color="#000000" fill="#FFFFFF"/><path d="m280.01 90.617c0-13.229-10.764-23.993-23.993-23.993s-23.993 10.763-23.993 23.993 10.763 23.993 23.993 23.993 23.993-10.763 23.993-23.993zm-32.985 0c0-4.958 4.034-8.993 8.993-8.993s8.993 4.034 8.993 8.993-4.034 8.993-8.993 8.993-8.993-4.034-8.993-8.993z" data-original="#000000" class="active-path" data-old_color="#000000" fill="#FFFFFF"/></g></g> </svg>
