<?xml version="1.0"?>
<svg xmlns="http://www.w3.org/2000/svg" id="Capa_1" enable-background="new 0 0 512 512" height="512px" viewBox="0 0 512 512" width="512px"><g><g id="Page-1"><g id="_x30_39---Superhero-Mask" transform="translate(-1 -1)"><path id="Shape" d="m490.317 308.294c4.353-19.643 6.23-39.754 5.589-59.863 0-55.716-27.679-142.311-105.681-202.984-2.573-2.002-6.062-2.362-8.99-.929s-4.784 4.41-4.781 7.669c0 3.481-1.357 85.323-119.453 85.323-117.482 0-119.453-81.868-119.453-85.323.002-3.26-1.853-6.236-4.781-7.669s-6.417-1.073-8.99.929c-78.003 60.674-105.682 147.268-105.682 202.984-.641 20.109 1.236 40.22 5.589 59.863-14.916 12.694-23.252 31.481-22.654 51.058 0 39.078 20.657 59.726 59.726 59.726 9.684 0 15.896 3.131 18.455 9.309 2.855 9.773-.013 20.321-7.423 27.303-2.218 2.142-3.108 5.315-2.327 8.298s3.111 5.313 6.094 6.094 6.156-.109 8.298-2.327c12.238-11.887 16.553-29.75 11.092-45.912-6.099-13.136-19.759-21.058-34.189-19.829-29.505 0-42.662-13.157-42.662-42.662-.392-12.101 3.752-23.912 11.621-33.114 13.626 31.757 43.259 58.711 107.832 58.711 55.665 0 77.866-21.058 94.077-36.442 10.222-9.693 15.99-14.752 25.375-14.752 9.386 0 15.153 5.06 25.375 14.752 16.211 15.384 38.413 36.442 94.077 36.442 64.573 0 94.205-26.954 107.832-58.711 7.869 9.202 12.014 21.013 11.621 33.114 0 29.505-13.157 42.662-42.662 42.662-14.446-1.241-28.125 6.691-34.223 19.846-5.461 16.163-1.146 34.025 11.092 45.912 3.348 3.234 8.67 3.187 11.961-.104s3.337-8.613.104-11.961c-7.41-6.982-10.278-17.53-7.423-27.303 2.594-6.194 8.805-9.326 18.49-9.326 39.07 0 59.726-20.648 59.726-59.726.599-19.577-7.737-38.364-22.652-51.058zm-113.864 59.59c-48.865 0-67.405-17.602-82.328-31.757-10.546-9.991-20.503-19.437-37.124-19.437s-26.578 9.445-37.124 19.437c-14.923 14.155-33.464 31.757-82.328 31.757-60.58 0-85.52-24.257-95.664-57.585-.124-.785-.356-1.549-.691-2.27-4.66-19.508-6.689-39.552-6.032-59.598 0-49.061 23.225-123.958 87.618-180.032 6.67 28.831 32.685 86.177 134.22 86.177s127.55-57.346 134.222-86.177c64.394 56.074 87.619 130.971 87.619 180.032.656 20.049-1.373 40.096-6.032 59.607-.337.717-.569 1.478-.691 2.261-10.137 33.328-35.086 57.585-95.665 57.585z" data-original="#000000" class="active-path" data-old_color="#000000" fill="#FFFFFF"/><path id="Shape_1_" d="m199.944 227.51c-43.353-25.793-113.028-6.084-115.954-5.222-3.663 1.056-6.181 4.413-6.169 8.225 0 23.95 12.269 86.177 68.259 86.177 38.899 0 68.259-14.821 80.042-29.505 3.978-4.059 5.867-9.724 5.119-15.358-3.57-18.587-14.974-34.735-31.297-44.317zm-53.864 72.115c-40.537 0-49.001-45.341-50.742-62.593 17.542-4.01 65.946-12.688 95.912 5.119 11.91 6.956 20.289 18.66 23.037 32.175-2.619 5.479-24.65 25.299-68.207 25.299z" data-original="#000000" class="active-path" data-old_color="#000000" fill="#FFFFFF"/><path id="Shape_2_" d="m430.104 222.288c-2.952-.853-72.602-20.554-115.963 5.222-16.3 9.581-27.688 25.715-31.254 44.283-.763 5.628 1.109 11.294 5.077 15.358 11.8 14.718 41.134 29.539 80.05 29.539 55.989 0 68.259-62.226 68.259-86.177.012-3.811-2.506-7.169-6.169-8.225zm-62.09 77.337c-43.566 0-65.588-19.812-68.207-25.256 2.747-13.516 11.127-25.22 23.037-32.175 29.957-17.85 78.361-9.172 95.912-5.119-1.741 17.21-10.205 62.55-50.742 62.55z" data-original="#000000" class="active-path" data-old_color="#000000" fill="#FFFFFF"/><path id="Shape_3_" d="m257 171.64c-14.137 0-25.597 11.46-25.597 25.597s11.46 25.597 25.597 25.597 25.597-11.46 25.597-25.597c0-14.136-11.46-25.597-25.597-25.597zm0 34.13c-4.712 0-8.532-3.82-8.532-8.532s3.82-8.532 8.532-8.532 8.532 3.82 8.532 8.532-3.82 8.532-8.532 8.532z" data-original="#000000" class="active-path" data-old_color="#000000" fill="#FFFFFF"/><circle id="Oval" cx="214.338" cy="180.173" r="8.532" data-original="#000000" class="active-path" data-old_color="#000000" fill="#FFFFFF"/><circle id="Oval_1_" cx="299.662" cy="180.173" r="8.532" data-original="#000000" class="active-path" data-old_color="#000000" fill="#FFFFFF"/></g></g></g> </svg>
