<?xml version="1.0"?>
<svg xmlns="http://www.w3.org/2000/svg" id="Outline" viewBox="0 0 512 512" width="512px" height="512px"><g><path d="M446.353,151.55C474.25,147.706,496,118.886,496,84c0-37.495-25.121-68-56-68-20.81,0-38.992,13.865-48.645,34.377A218.669,218.669,0,0,1,347.777,68.2c-5.756,1.682-11.674,3.183-17.6,4.464C307.837,77.532,282.88,80,256,80s-51.837-2.468-74.189-7.339c-5.914-1.278-11.832-2.779-17.591-4.462a218.629,218.629,0,0,1-43.575-17.822C110.992,29.865,92.81,16,72,16,41.121,16,16,46.505,16,84c0,34.885,21.75,63.705,49.647,67.55a71.01,71.01,0,0,0,3.968,11.529C71.968,168.725,74,173.6,74,184s-2.032,15.276-4.385,20.923A61.643,61.643,0,0,0,64,232a61.606,61.606,0,0,0,5.615,27.067A47.679,47.679,0,0,1,73.5,272H24a8,8,0,0,0-8,8v32a8,8,0,0,0,8,8H40V488a8,8,0,0,0,8,8H80a8,8,0,0,0,8-8V416H424v72a8,8,0,0,0,8,8h32a8,8,0,0,0,8-8V320h16a8,8,0,0,0,8-8V280a8,8,0,0,0-8-8H438.5a47.679,47.679,0,0,1,3.885-12.933A61.606,61.606,0,0,0,448,232a61.643,61.643,0,0,0-5.615-27.077C440.032,199.276,438,194.4,438,184s2.032-15.275,4.385-20.921A71,71,0,0,0,446.353,151.55ZM440,32c22.056,0,40,23.327,40,52s-17.944,52-40,52-40-23.327-40-52S417.944,32,440,32ZM333.571,88.3q2.5-.541,5-1.134l-6.2,23.063L317.557,91.323Q325.748,90,333.571,88.3Zm-66.444,7.558L256,118.111,244.873,95.858Q250.386,96,256,96T267.127,95.858ZM194.56,91.342l-14.992,19.13L173.3,87.134q2.561.606,5.122,1.163Q186.291,90.013,194.56,91.342ZM32,84c0-28.673,17.944-52,40-52s40,23.327,40,52-17.944,52-40,52S32,112.673,32,84ZM72,480H56V416H72Zm368,0V416h16v64Zm16-80H56V320H456Zm24-96H32V288H480ZM89.606,272a61.351,61.351,0,0,0-5.222-19.088C82.031,247.268,80,242.394,80,232s2.032-15.276,4.385-20.923A61.643,61.643,0,0,0,90,184a61.617,61.617,0,0,0-5.616-27.076c-.853-2.045-1.646-3.961-2.321-6.045C108.154,145.1,128,117.322,128,84a82.257,82.257,0,0,0-.972-12.55,240.649,240.649,0,0,0,28.383,10.785l12.86,47.841a8,8,0,0,0,14.022,2.859L212.963,93.8q6.694.711,13.589,1.2l22.293,44.586a8,8,0,0,0,14.31,0l22.293-44.586q6.959-.486,13.71-1.208l30.49,38.908a8,8,0,0,0,14.023-2.857l12.785-47.56A240.649,240.649,0,0,0,384.972,71.45,82.257,82.257,0,0,0,384,84c0,33.322,19.846,61.1,45.936,66.879-.675,2.085-1.468,4-2.32,6.045A61.617,61.617,0,0,0,422,184a61.643,61.643,0,0,0,5.615,27.077C429.968,216.724,432,221.6,432,232s-2.031,15.268-4.384,20.912A61.351,61.351,0,0,0,422.394,272Z" data-original="#000000" class="active-path" data-old_color="#000000" fill="#FFFFFF"/></g> </svg>
