<?xml version="1.0"?>
<svg xmlns="http://www.w3.org/2000/svg" height="512px" viewBox="0 0 256 256" width="512px" class=""><g><g fill="#ebe7f2"><path d="m201.474 214.252h-46.4a2.5 2.5 0 0 1 0-5h46.4a2.5 2.5 0 0 1 0 5z" data-original="#EBE7F2" class="active-path" style="fill:#FFFFFF" data-old_color="#EBE7F2"/><path d="m196.188 110.072h-35.832a2.5 2.5 0 0 1 0-5h35.832a2.5 2.5 0 0 1 0 5z" data-original="#EBE7F2" class="active-path" style="fill:#FFFFFF" data-old_color="#EBE7F2"/><path d="m104.011 214.252h-47.764a2.5 2.5 0 0 1 0-5h47.764a2.5 2.5 0 1 1 0 5z" data-original="#EBE7F2" class="active-path" style="fill:#FFFFFF" data-old_color="#EBE7F2"/><path d="m101.745 48.5h-42.182a2.5 2.5 0 0 1 0-5h42.182a2.5 2.5 0 0 1 0 5z" data-original="#EBE7F2" class="active-path" style="fill:#FFFFFF" data-old_color="#EBE7F2"/></g><path d="m69.063 225.25a2.5 2.5 0 0 1 -2.5-2.5 71.927 71.927 0 0 0 -3.072-20.809l-2.151-7.126a252.355 252.355 0 0 1 -10.777-72.983 33.861 33.861 0 0 1 9.983-24.1 28.893 28.893 0 0 0 8.517-20.564v-31.168a2.5 2.5 0 0 1 5 0v31.168a33.857 33.857 0 0 1 -9.982 24.1 28.9 28.9 0 0 0 -8.518 20.564 247.34 247.34 0 0 0 10.564 71.538l2.151 7.126a76.942 76.942 0 0 1 3.285 22.254 2.5 2.5 0 0 1 -2.5 2.5z" fill="#a58bc9" data-original="#A58BC9" class="" style="fill:#FFFFFF" data-old_color="#a58bc9"/><path d="m163.2 225.25a2.5 2.5 0 0 1 -2.1-3.858 22.436 22.436 0 0 0 2.7-18.5l-8.891-30.415a94.74 94.74 0 0 1 -3.807-26.591 34.744 34.744 0 0 1 11.38-25.687c5.059-4.588 7.367-6.681 7.367-12.627a2.5 2.5 0 0 1 5 0c0 8.161-3.778 11.588-9.007 16.33a29.736 29.736 0 0 0 -9.74 21.984 89.736 89.736 0 0 0 3.606 25.188l8.89 30.415a27.418 27.418 0 0 1 -3.3 22.619 2.5 2.5 0 0 1 -2.098 1.142z" fill="#a58bc9" data-original="#A58BC9" class="" style="fill:#FFFFFF" data-old_color="#a58bc9"/><path d="m104.245 77.168v-31.168a1.752 1.752 0 0 1 1.755-1.75h.5a6.75 6.75 0 0 0 0-13.5h-51.687a6.75 6.75 0 0 0 0 13.5h.5a1.752 1.752 0 0 1 1.75 1.75v31.168a28.893 28.893 0 0 1 -8.517 20.564 33.861 33.861 0 0 0 -9.983 24.1 252.355 252.355 0 0 0 10.777 72.983l2.151 7.126a71.927 71.927 0 0 1 3.072 20.809 2.5 2.5 0 0 0 2.5 2.5h47.182a2.5 2.5 0 0 0 2.5-2.5 71.949 71.949 0 0 1 3.073-20.809l2.152-7.126a252.367 252.367 0 0 0 10.775-72.983 33.861 33.861 0 0 0 -9.982-24.1 28.9 28.9 0 0 1 -8.518-20.564zm2.938 116.2-2.152 7.126a77 77 0 0 0 -3.246 19.754h-42.262a76.932 76.932 0 0 0 -3.245-19.748l-2.151-7.126a247.34 247.34 0 0 1 -10.564-71.538 28.9 28.9 0 0 1 8.518-20.564 33.857 33.857 0 0 0 9.982-24.1v-31.172a6.758 6.758 0 0 0 -6.75-6.75h-.5a1.75 1.75 0 0 1 0-3.5h51.687a1.75 1.75 0 0 1 0 3.5h-.5a6.758 6.758 0 0 0 -6.755 6.75v31.168a33.861 33.861 0 0 0 9.983 24.1 28.893 28.893 0 0 1 8.517 20.564 247.386 247.386 0 0 1 -10.562 71.538z" fill="#846f75" data-original="#846F75" class="" style="fill:#FFFFFF" data-old_color="#846f75"/><path d="m213.629 172.477a94.731 94.731 0 0 0 3.808-26.591 34.749 34.749 0 0 0 -11.381-25.686c-4.519-4.1-6.843-6.2-7.288-10.845h.037c4.449 0 5.551-8.362 5.551-9.552a5.557 5.557 0 0 0 -5.551-5.552h-41.065a5.558 5.558 0 0 0 -5.552 5.552c0 1.19 1.1 9.552 5.552 9.552h.037c-.445 4.64-2.769 6.748-7.288 10.845a34.744 34.744 0 0 0 -11.38 25.687 94.74 94.74 0 0 0 3.807 26.591l8.891 30.415a22.436 22.436 0 0 1 -2.7 18.5 2.5 2.5 0 0 0 2.1 3.858h54.144a2.5 2.5 0 0 0 2.1-3.859 22.432 22.432 0 0 1 -2.705-18.5zm-12.466 47.773h-45.781a27.414 27.414 0 0 0 1.223-18.761l-8.89-30.415a89.736 89.736 0 0 1 -3.606-25.188 29.736 29.736 0 0 1 9.74-21.984c5.229-4.742 9.007-8.169 9.007-16.33v-.22a3 3 0 0 0 -3-3h-1.392a13.559 13.559 0 0 1 -1.278-4.552.552.552 0 0 1 .552-.552h41.065a.552.552 0 0 1 .551.552 13.556 13.556 0 0 1 -1.277 4.552h-1.392a3 3 0 0 0 -3 3v.22c0 8.161 3.779 11.588 9.008 16.33a29.735 29.735 0 0 1 9.741 21.984 89.727 89.727 0 0 1 -3.607 25.188l-8.891 30.415a27.425 27.425 0 0 0 1.227 18.761z" fill="#846f75" data-original="#846F75" class="" style="fill:#FFFFFF" data-old_color="#846f75"/></g> </svg>
